<mxfile host="app.diagrams.net" modified="2023-12-19T19:29:06.422Z" agent="Mozilla/5.0 (Windows NT 10.0; Win64; x64) AppleWebKit/537.36 (KHTML, like Gecko) Chrome/119.0.0.0 Safari/537.36" version="22.1.11" etag="6qqEsqu3GCcYYhLT_SqZ" type="github">
  <diagram name="Side-1" id="pqEDq0lxMr9wwAOZNRSQ">
    <mxGraphModel>
      <root>
        <mxCell id="0" />
        <mxCell id="1" parent="0" />
      </root>
    </mxGraphModel>
  </diagram>
</mxfile>
